    <svg
      xmlns="http://www.w3.org/2000/svg"
      width="18"
      height="16"
      fill="none"
      viewBox="0 0 18 16"
    >
      <path
        fill="#3B20C6"
        fill-rule="evenodd"
        d="M4.57.8H14.25c0 1.525.442 3.01 1.261 4.23l.162.24c1.167 1.74 1.798 3.855 1.798 6.03v3.9H3.89v-1.8c0-1.72-.498-3.394-1.422-4.77C1.301 6.89.67 4.775.67 2.6V.8h3.9zm11.02 10.5v2.162h-2.02V11.9c0-2.175-.631-4.29-1.799-6.03a8.444 8.444 0 01-1.305-3.332h2.053a9.708 9.708 0 001.488 3.752l.161.24c.924 1.376 1.423 3.05 1.423 4.77zm-3.9.6v1.562H9.67V12.8a11.08 11.08 0 00-.705-3.9h2.2a8.77 8.77 0 01.526 3zm-1.442-4.8a10.72 10.72 0 01-1.686-4.562H6.465c.093 1.529.58 3 1.407 4.232.073.109.143.219.212.33h2.164zm-2.457 5.7v.662H5.77V13.4c0-2.175-.631-4.29-1.799-6.03C3.048 5.994 2.55 4.32 2.55 2.6v-.062h2.034c.095 1.984.715 3.896 1.786 5.492.923 1.376 1.422 3.05 1.422 4.77z"
        clip-rule="evenodd"
      ></path>
    </svg>
