<svg width="22" height="21" viewBox="0 0 22 21" fill="none" xmlns="http://www.w3.org/2000/svg">
<path fill-rule="evenodd" clip-rule="evenodd" d="M11.4664 0.600006H11.1998H9.40306H7.7329H5.9369H4.26674H2.46997H0.79981H0.799805V2.14482H0.79981V2.19999C0.79981 4.13288 1.36074 6.01363 2.39839 7.55994C3.21923 8.78314 3.66294 10.2709 3.66294 11.7999V13.3999H4.26674V13.4001L14.9333 13.4001V13.3999H15.7331V9.93325C15.7331 8.00036 15.1722 6.11962 14.1345 4.5733L13.9914 4.35997C13.2635 3.27525 12.87 1.95591 12.87 0.600006H11.4664ZM7.12987 11.8552L5.3331 11.8552V11.7999C5.3331 9.86701 4.77218 7.98626 3.73452 6.43995C2.91369 5.21675 2.46997 3.72899 2.46997 2.19999V2.14482L4.2782 2.14482C4.36275 3.90824 4.91345 5.60814 5.86532 7.02661C6.68616 8.24982 7.12987 9.73757 7.12987 11.2666V11.8552ZM10.596 11.8552H8.80003V11.2666C8.80003 10.0686 8.58457 8.8907 8.17369 7.80001L10.1286 7.80001C10.4354 8.6415 10.596 9.54658 10.596 10.4666V11.8552ZM7.39017 6.20002C7.32913 6.10097 7.26622 6.00314 7.20145 5.90662C6.46647 4.81136 6.03385 3.50399 5.95139 2.14482L7.81512 2.14482C8.00442 3.60832 8.51686 5.00334 9.3137 6.20002L7.39017 6.20002ZM14.063 11.8552L12.2662 11.8552V10.4666C12.2662 8.53369 11.7053 6.65294 10.6676 5.10663C10.0781 4.22822 9.68317 3.21339 9.50733 2.14482L11.3323 2.14482C11.5405 3.34762 11.9904 4.48919 12.6553 5.47996L12.7984 5.69329C13.6193 6.9165 14.063 8.40425 14.063 9.93325V11.8552Z" fill="#3B20C6"/>
<rect x="7.25" y="6.25" width="13.5" height="13.5" rx="6.75" fill="#3B20C6"/>
<path d="M16.25 10.75L11.75 15.25" stroke="#F8F7FF" stroke-width="0.75" strokeLinecap="round" strokeLinejoin="round"/>
<path d="M12.375 12.25C12.8582 12.25 13.25 11.8582 13.25 11.375C13.25 10.8918 12.8582 10.5 12.375 10.5C11.8918 10.5 11.5 10.8918 11.5 11.375C11.5 11.8582 11.8918 12.25 12.375 12.25Z" stroke="#F8F7FF" stroke-width="0.75" strokeLinecap="round" strokeLinejoin="round"/>
<path d="M15.625 15.5C16.1082 15.5 16.5 15.1082 16.5 14.625C16.5 14.1418 16.1082 13.75 15.625 13.75C15.1418 13.75 14.75 14.1418 14.75 14.625C14.75 15.1082 15.1418 15.5 15.625 15.5Z" stroke="#F8F7FF" stroke-width="0.75" strokeLinecap="round" strokeLinejoin="round"/>
<rect x="7.25" y="6.25" width="13.5" height="13.5" rx="6.75" stroke="white" stroke-width="1.5"/>
</svg>
