<svg width="18" height="16" viewBox="0 0 18 16" fill="none" xmlns="http://www.w3.org/2000/svg">
<path fill-rule="evenodd" clip-rule="evenodd" d="M4.57016 0.800089V0.800003H6.44909V0.800089L8.46968 0.800089V0.800003H10.3486V0.80009L12.3699 0.80009V0.800003H14.2488C14.2488 2.3254 14.6915 3.80964 15.5104 5.02995L15.6715 5.26995C16.8388 7.00955 17.4699 9.12538 17.4699 11.2999V15.1998H16.57V15.2L4.57016 15.2V15.1999H3.89094V13.3999C3.89094 11.6798 3.39176 10.0061 2.46833 8.62999C1.30097 6.8904 0.669929 4.77456 0.669929 2.60007V2.538H0.669922V0.800088H0.669929H2.54885L4.57016 0.800089ZM15.5909 11.2999V13.4621L13.5696 13.4621V11.8999C13.5696 9.72538 12.9386 7.60954 11.7712 5.86994C11.1081 4.88176 10.6637 3.7401 10.4659 2.538L12.519 2.538C12.7532 3.89111 13.2593 5.17535 14.0073 6.28994L14.1683 6.52993C15.0918 7.90603 15.5909 9.57976 15.5909 11.2999ZM11.6907 11.8999V13.4621H9.6701V12.7999C9.6701 11.4522 9.42771 10.127 8.96547 8.89998L11.1648 8.89998C11.51 9.84666 11.6907 10.8649 11.6907 11.8999ZM10.2481 7.1C9.35165 5.75377 8.77516 4.1844 8.56219 2.538L6.46539 2.538C6.55817 4.06703 7.04487 5.53779 7.8717 6.76993C7.94457 6.87852 8.01534 6.98856 8.08401 7.1L10.2481 7.1ZM7.79118 12.7999V13.4621L5.76987 13.4621V13.3999C5.76987 11.2254 5.13883 9.10961 3.97147 7.37001C3.04803 5.99391 2.54885 4.32019 2.54885 2.60007V2.538L4.58305 2.538C4.67819 4.52181 5.29773 6.43416 6.36856 8.02992C7.292 9.40602 7.79118 11.0797 7.79118 12.7999Z" fill="#3B20C6"/>
</svg>
